<svg xmlns="http://www.w3.org/2000/svg" width="60" height="55.646" viewBox="0 0 60 55.646">
  <g id="email" transform="translate(0 -16.43)">
    <path id="Path_286" data-name="Path 286" d="M59.555,39.481h0L51.894,34.4V17.424a.994.994,0,0,0-.994-.994H9.1a.994.994,0,0,0-.994.994V34.4L.445,39.481h0A.992.992,0,0,0,0,40.309V71.083a.994.994,0,0,0,.994.994H59.006A.994.994,0,0,0,60,71.083V40.309a.993.993,0,0,0-.445-.828ZM8.1,42.956,4.988,41.3H8.1Zm-6.117-1L24.84,54.083,1.987,69.231ZM30,53.047,55.709,70.089H4.29Zm5.16,1.036L58.012,41.961V69.232L35.16,54.083ZM51.894,41.3h3.118l-3.118,1.654Zm3.815-1.987H51.894V36.786Zm-5.8-20.9V44.011L33.274,52.833l-2.726-1.807a.994.994,0,0,0-1.1,0l-2.725,1.807L10.092,44.01V18.417H49.906ZM8.1,39.315H4.291L8.1,36.787Z" transform="translate(0 0)" fill="#1e2f4f"/>
    <path id="Path_287" data-name="Path 287" d="M168.289,95.505h8.11a1.018,1.018,0,0,0,0-2.036h-8.11a7.1,7.1,0,0,1-7.092-7.092v-.3a7.092,7.092,0,1,1,14.184,0v.751a1.535,1.535,0,1,1-3.071,0V85.4a4.4,4.4,0,1,0-1.5,3.3,3.57,3.57,0,0,0,6.607-1.878v-.751a9.128,9.128,0,1,0-18.255,0v.3A9.138,9.138,0,0,0,168.289,95.505Zm-.376-7.743a2.361,2.361,0,1,1,2.361-2.361A2.364,2.364,0,0,1,167.913,87.762Z" transform="translate(-138.289 -52.305)" fill="#1e2f4f"/>
  </g>
</svg>
