<svg xmlns="http://www.w3.org/2000/svg" width="48.428" height="28.997" viewBox="0 0 48.428 28.997">
  <g id="_002-master-card-logo" data-name="002-master-card-logo" transform="translate(0 -9.716)">
    <g id="Group_320" data-name="Group 320">
      <g id="Group_319" data-name="Group 319">
        <path id="Path_253" data-name="Path 253" d="M33.933,9.716a14.433,14.433,0,0,0-9.721,3.748,14.442,14.442,0,0,0-9.717-3.745H14.4A14.495,14.495,0,1,0,24.21,34.963a14.336,14.336,0,0,1-1.482-1.584h2.993a14.493,14.493,0,0,1-1.472,1.553h0c-.012.013-.025.021-.037.032a14.492,14.492,0,0,0,24.218-10.75v-.007A14.491,14.491,0,0,0,33.933,9.716ZM22.894,14.961h2.755a15.105,15.105,0,0,1,1.125,1.552H21.859C22.176,15.995,22.524,15.462,22.894,14.961ZM21,18.035H27.61a15.485,15.485,0,0,1,.625,1.553H20.22C20.3,19.438,20.58,18.834,21,18.035ZM5.917,27.906,6.8,22.364,4.813,27.906H3.75l-.138-5.542-.939,5.542H1.184l1.234-7.35H4.67l.079,4.51,1.521-4.51H8.713L7.5,27.906Zm5.265-.012.051-.587a2,2,0,0,1-1.583.709,1.465,1.465,0,0,1-1.49-1.663c0-1.719,1.4-2.289,2.737-2.289.21,0,.663.038.663.038a1,1,0,0,0,.051-.389c0-.467-.42-.531-.995-.531a4.885,4.885,0,0,0-1.682.271l.224-1.33a5.336,5.336,0,0,1,1.869-.34,1.825,1.825,0,0,1,2.12,1.861l-.606,4.25Zm5.743-1.872c0,2.051-1.987,1.963-2.334,1.963a4.961,4.961,0,0,1-1.732-.189l.206-1.35a5.046,5.046,0,0,0,1.371.235c.416,0,.956-.041.956-.538,0-.744-1.932-.566-1.932-2.333,0-1.559,1.158-2.015,2.3-2.015a7.2,7.2,0,0,1,1.424.121l-.195,1.362s-.837-.069-1.054-.069c-.549,0-.848.12-.848.5C15.086,24.485,16.925,24.107,16.925,26.022Zm2.386.538c.137,0,.292-.047.4-.047l-.193,1.311a3.977,3.977,0,0,1-1.157.2,1.145,1.145,0,0,1-1.23-1.308c0-.612.877-5.655.911-5.688h1.543l-.157.9h.77L20,23.386h-.817l-.434,2.677C18.715,26.276,18.774,26.56,19.311,26.56Zm3.394-4.8a2.07,2.07,0,0,1,2.2,2.257,11.028,11.028,0,0,1-.2,1.407H21.566s-.29,1.235,1.367,1.235a4.806,4.806,0,0,0,1.639-.38L24.3,27.769a3.914,3.914,0,0,1-1.63.254A2.423,2.423,0,0,1,20,25.324C20,23.435,21.153,21.763,22.7,21.763Zm4.087,10.123H21.65a14.334,14.334,0,0,1-.856-1.552h6.843A14.885,14.885,0,0,1,26.792,31.886Zm-.345-3.969H24.863l.963-5.982h1.437l-.138.867s.512-.943,1.2-.943a1.653,1.653,0,0,1,.3.02,5.935,5.935,0,0,0-.574,1.79C26.98,23.289,26.9,25.362,26.447,27.917Zm6.035-.093a7.121,7.121,0,0,1-1.35.212c-1.842,0-2.777-1.271-2.777-3.2,0-2.9,1.733-4.449,3.514-4.449a5.526,5.526,0,0,1,1.738.378L33.355,22.4a2.748,2.748,0,0,0-1.416-.441c-1.05,0-1.992,1-1.992,2.823a1.527,1.527,0,0,0,1.535,1.733,3.7,3.7,0,0,0,1.276-.379ZM36.2,27.9l.052-.591a2.006,2.006,0,0,1-1.583.709,1.465,1.465,0,0,1-1.49-1.663c0-1.719,1.4-2.289,2.736-2.289.21,0,.664.038.664.038a.973.973,0,0,0,.052-.388c0-.467-.42-.531-1-.531a4.876,4.876,0,0,0-1.681.271l.224-1.33a5.339,5.339,0,0,1,1.87-.34,1.824,1.824,0,0,1,2.119,1.861l-.606,4.25S36.2,27.9,36.2,27.9Zm3.207.02H37.82l.963-5.982h1.438l-.138.867s.513-.943,1.2-.943a1.633,1.633,0,0,1,.3.02,5.935,5.935,0,0,0-.574,1.79C39.937,23.289,39.855,25.362,39.4,27.917Zm4.729-.016.067-.551A1.928,1.928,0,0,1,42.762,28c-1.283,0-1.912-1.239-1.912-2.5,0-1.958,1.178-3.665,2.592-3.665a2.046,2.046,0,0,1,1.491.805l.334-2.065,1.547,0L45.634,27.9Zm3.052-.207a.461.461,0,0,1-.173.175.465.465,0,0,1-.464,0,.474.474,0,0,1-.235-.407.476.476,0,0,1,.062-.234.444.444,0,0,1,.175-.174.475.475,0,0,1,.229-.062.467.467,0,0,1,.23.062.428.428,0,0,1,.176.174.469.469,0,0,1,0,.466Z" fill="#747f92"/>
      </g>
    </g>
    <g id="Group_322" data-name="Group 322">
      <g id="Group_321" data-name="Group 321">
        <path id="Path_254" data-name="Path 254" d="M47.061,32.117a.142.142,0,0,0-.035-.024.244.244,0,0,0-.08-.009h-.094v.15h.1a.141.141,0,0,0,.1-.021.066.066,0,0,0,.025-.055A.075.075,0,0,0,47.061,32.117Z" fill="#747f92"/>
      </g>
    </g>
    <g id="Group_324" data-name="Group 324">
      <g id="Group_323" data-name="Group 323">
        <path id="Path_255" data-name="Path 255" d="M47.384,32.027a.43.43,0,0,0-.177-.174.472.472,0,0,0-.229-.062.467.467,0,0,0-.23.062.434.434,0,0,0-.176.174.454.454,0,0,0-.062.232.472.472,0,0,0,.062.232.464.464,0,0,0,.174.175.476.476,0,0,0,.234.062.468.468,0,0,0,.231-.062.448.448,0,0,0,.173-.175.459.459,0,0,0,.062-.232A.469.469,0,0,0,47.384,32.027Zm-.288.492h0l-.044-.079a.418.418,0,0,0-.086-.119A.111.111,0,0,0,46.9,32.3h-.047v.215h-.082v-.505h.174a.372.372,0,0,1,.127.015.113.113,0,0,1,.064.049.127.127,0,0,1,.023.074.144.144,0,0,1-.039.1.162.162,0,0,1-.1.046.109.109,0,0,1,.043.027.59.59,0,0,1,.075.1l.062.1Z" fill="#747f92"/>
      </g>
    </g>
    <g id="Group_326" data-name="Group 326">
      <g id="Group_325" data-name="Group 325">
        <path id="Path_256" data-name="Path 256" d="M11.022,25.211c-1.131,0-1.36.508-1.36.931a.561.561,0,0,0,.6.582c.929,0,1.122-1.218,1.092-1.477A.938.938,0,0,0,11.022,25.211Z" fill="#747f92"/>
      </g>
    </g>
    <g id="Group_328" data-name="Group 328">
      <g id="Group_327" data-name="Group 327">
        <path id="Path_257" data-name="Path 257" d="M22.711,23.144c-.841,0-1,.957-1,1.058h1.713C23.421,24.125,23.582,23.144,22.711,23.144Z" fill="#747f92"/>
      </g>
    </g>
    <g id="Group_330" data-name="Group 330">
      <g id="Group_329" data-name="Group 329">
        <path id="Path_258" data-name="Path 258" d="M43.709,23.311c-.679,0-1.216.788-1.215,1.985,0,.73.26,1.2.816,1.2.836,0,1.239-1.091,1.239-1.9C44.549,23.693,44.264,23.311,43.709,23.311Z" fill="#747f92"/>
      </g>
    </g>
    <g id="Group_332" data-name="Group 332">
      <g id="Group_331" data-name="Group 331">
        <path id="Path_259" data-name="Path 259" d="M47.115,27.268a.377.377,0,0,0-.146-.145.381.381,0,0,0-.191-.052.4.4,0,0,0-.191.052.352.352,0,0,0-.146.145.4.4,0,0,0-.053.195.39.39,0,0,0,.2.34.4.4,0,0,0,.193.054.393.393,0,0,0,.193-.054.379.379,0,0,0,.146-.146.388.388,0,0,0,.051-.194A.4.4,0,0,0,47.115,27.268Zm-.217.452-.045-.078a.4.4,0,0,0-.084-.118.1.1,0,0,0-.066-.019h-.046v.214h-.084v-.5h.175a.357.357,0,0,1,.128.016.143.143,0,0,1,.064.048.116.116,0,0,1,.023.074.136.136,0,0,1-.04.1.157.157,0,0,1-.1.046.139.139,0,0,1,.043.026.511.511,0,0,1,.074.1l.062.1Z" fill="#747f92"/>
      </g>
    </g>
    <g id="Group_334" data-name="Group 334">
      <g id="Group_333" data-name="Group 333">
        <path id="Path_260" data-name="Path 260" d="M36.039,25.211c-1.131,0-1.36.508-1.36.931a.561.561,0,0,0,.6.582c.929,0,1.121-1.218,1.092-1.477A.95.95,0,0,0,36.039,25.211Z" fill="#747f92"/>
      </g>
    </g>
    <g id="Group_336" data-name="Group 336">
      <g id="Group_335" data-name="Group 335">
        <path id="Path_261" data-name="Path 261" d="M46.864,27.318a.091.091,0,0,0-.034-.025.283.283,0,0,0-.082-.01h-.091v.152h.1a.158.158,0,0,0,.1-.021.078.078,0,0,0,.024-.056A.067.067,0,0,0,46.864,27.318Z" fill="#747f92"/>
      </g>
    </g>
  </g>
</svg>
