<svg xmlns="http://www.w3.org/2000/svg" width="47.902" height="16.378" viewBox="0 0 47.902 16.378">
  <g id="_005-american-express-logo" data-name="005-american-express-logo" transform="translate(0 -15.762)">
    <g id="Group_370" data-name="Group 370">
      <g id="Group_369" data-name="Group 369">
        <path id="Path_277" data-name="Path 277" d="M34.554,17.56,33.673,19.7h1.771Z" fill="#747f92"/>
      </g>
    </g>
    <g id="Group_372" data-name="Group 372">
      <g id="Group_371" data-name="Group 371">
        <path id="Path_278" data-name="Path 278" d="M4.105,17.56,3.234,19.7H4.983Z" fill="#747f92"/>
      </g>
    </g>
    <g id="Group_374" data-name="Group 374">
      <g id="Group_373" data-name="Group 373">
        <path id="Path_279" data-name="Path 279" d="M24.32,17.863a1.329,1.329,0,0,0-.608-.1h-1.58v1.191h1.559a1.207,1.207,0,0,0,.634-.11.551.551,0,0,0,.264-.51A.491.491,0,0,0,24.32,17.863Z" fill="#747f92"/>
      </g>
    </g>
    <g id="Group_376" data-name="Group 376">
      <g id="Group_375" data-name="Group 375">
        <path id="Path_280" data-name="Path 280" d="M29.816,27.093A1.259,1.259,0,0,0,29.2,27h-1.58v1.2h1.559a1.249,1.249,0,0,0,.636-.109.58.58,0,0,0,.265-.516A.516.516,0,0,0,29.816,27.093Z" fill="#747f92"/>
      </g>
    </g>
    <g id="Group_378" data-name="Group 378">
      <g id="Group_377" data-name="Group 377">
        <path id="Path_281" data-name="Path 281" d="M23.571,26.994H21.9v1.367h1.656c.493,0,.8-.244.8-.707S24.035,26.994,23.571,26.994Z" fill="#747f92"/>
      </g>
    </g>
    <g id="Group_380" data-name="Group 380">
      <g id="Group_379" data-name="Group 379">
        <path id="Path_282" data-name="Path 282" d="M47.262,27.8a.332.332,0,0,0-.028-.026.887.887,0,0,0,.4-.744V25.887A.886.886,0,0,0,46.752,25h-2.57a2.848,2.848,0,0,0-1.845.592A.875.875,0,0,0,41.511,25h-2.57a2.943,2.943,0,0,0-1.688.463A.872.872,0,0,0,36.49,25H32.21a.88.88,0,0,0-.783.488c-.061-.043-.106-.093-.17-.131A3.991,3.991,0,0,0,29.3,25H26.333a.879.879,0,0,0-.783.492A3.55,3.55,0,0,0,23.571,25h-4.1a.884.884,0,0,0-.651.282l-.971,1.047-.932-1.035a.869.869,0,0,0-.659-.3H11.1a.886.886,0,0,0-.886.887v5.367a.886.886,0,0,0,.886.887h5.081a.883.883,0,0,0,.65-.285l.979-1.059.929,1.045a.884.884,0,0,0,.663.3H21.9a.886.886,0,0,0,.887-.885v-.916H23.5a3.754,3.754,0,0,0,1.95-.449v1.365a.886.886,0,0,0,.887.885h1.289a.886.886,0,0,0,.887-.885V30.177h.483c.118,0,.2,0,.261.008,0,.1,0,.211,0,.287v.781a.887.887,0,0,0,.887.885H31.43a.845.845,0,0,0,.392-.1.879.879,0,0,0,.391.1h4.281a.877.877,0,0,0,.385-.1.867.867,0,0,0,.385.1h2.5A3.28,3.28,0,0,0,41.69,31.6a.883.883,0,0,0,.814.539H45c1.817,0,2.9-.965,2.9-2.58A2.367,2.367,0,0,0,47.262,27.8ZM23.5,29.45H21.9v1.8H19.4l-1.58-1.776-1.642,1.776H11.1V25.883H16.26l1.58,1.76,1.632-1.76h4.1c1.017,0,2.162.285,2.162,1.771S24.62,29.453,23.5,29.45Zm7.093-.691a1.361,1.361,0,0,1,.625.451,1.554,1.554,0,0,1,.213.979v1.064H30.142v-.672c0-.322.031-.8-.209-1.051-.184-.191-.469-.236-.939-.236h-1.37v1.959H26.335V25.886H29.3a3.178,3.178,0,0,1,1.543.252,1.258,1.258,0,0,1,.659,1.191A1.508,1.508,0,0,1,30.591,28.759ZM36.492,27h-3v.977h2.93v1.1h-2.93v1.066l3,.006v1.113h-4.28V25.886h4.28Zm3.271,4.252h-2.5V30.094h2.487a.741.741,0,0,0,.523-.133.477.477,0,0,0,.15-.351.453.453,0,0,0-.156-.354.675.675,0,0,0-.457-.119c-1.2-.039-2.7.037-2.7-1.66,0-.781.488-1.6,1.834-1.6h2.57v1.142H39.162a.864.864,0,0,0-.514.1.45.45,0,0,0,.086.787,1.487,1.487,0,0,0,.5.061l.689.02a2.079,2.079,0,0,1,1.463.432,1.49,1.49,0,0,1,.385,1.138C41.771,30.714,41.052,31.253,39.763,31.247Zm5.241,0h-2.5V30.094h2.488a.737.737,0,0,0,.522-.133.477.477,0,0,0,.15-.351.453.453,0,0,0-.156-.354.672.672,0,0,0-.457-.119c-1.2-.039-2.7.037-2.7-1.66,0-.781.488-1.6,1.834-1.6h2.57v1.142H44.4a.864.864,0,0,0-.515.1.451.451,0,0,0,.086.787,1.49,1.49,0,0,0,.5.061l.689.02a2.083,2.083,0,0,1,1.465.432,1.5,1.5,0,0,1,.385,1.138C47.014,30.714,46.293,31.253,45,31.247Z" fill="#747f92"/>
      </g>
    </g>
    <g id="Group_382" data-name="Group 382">
      <g id="Group_381" data-name="Group 381">
        <path id="Path_283" data-name="Path 283" d="M43.236,15.762H41.923a.886.886,0,0,0-.887.886V17.2l-.609-1.011a.89.89,0,0,0-.758-.428H37.714a.886.886,0,0,0-.886.886V17.4l-.471-1.1a.885.885,0,0,0-.813-.537H33.622a.878.878,0,0,0-.529.176.879.879,0,0,0-.531-.176H31.323a3.519,3.519,0,0,0-2.408.753.875.875,0,0,0-.859-.753h-1.31a.883.883,0,0,0-.789.5,1.818,1.818,0,0,0-.159-.124,3.771,3.771,0,0,0-2-.375H20.85a.867.867,0,0,0-.445.137.855.855,0,0,0-.444-.137H15.677a.862.862,0,0,0-.478.159.868.868,0,0,0-.478-.159H12.583a.885.885,0,0,0-.814.541l-.762,1.8-.839-1.822a.89.89,0,0,0-.805-.515H7.269a.886.886,0,0,0-.886.886v.771L5.9,16.3a.887.887,0,0,0-.815-.536h-1.9a.888.888,0,0,0-.815.537l-2.3,5.367A.885.885,0,0,0,.886,22.9H2.28a.886.886,0,0,0,.816-.546l.271-.652H4.853l.267.648a.886.886,0,0,0,.82.549H8.549a.886.886,0,0,0,.886-.886v-.021l.168.381a.887.887,0,0,0,.81.527l1.127,0a.884.884,0,0,0,.81-.528l.17-.38v.022a.885.885,0,0,0,.886.885h1.315a.876.876,0,0,0,.478-.159.87.87,0,0,0,.478.159h4.284a.855.855,0,0,0,.444-.137.864.864,0,0,0,.445.137h1.284a.886.886,0,0,0,.886-.886V20.95h.49c.111,0,.19,0,.249.007.006.091,0,.2,0,.271l0,.118,0,.677a.888.888,0,0,0,.887.879h1.294a.865.865,0,0,0,.4-.107.872.872,0,0,0,.4.107h1.31a.874.874,0,0,0,.853-.714,3.72,3.72,0,0,0,2.321.714h1.5a.883.883,0,0,0,.817-.555l.261-.643h1.478l.271.652a.886.886,0,0,0,.818.545h2.61a.886.886,0,0,0,.886-.886v-.847l.787,1.305a.889.889,0,0,0,.76.428h1.816a.886.886,0,0,0,.886-.886V16.648A.887.887,0,0,0,43.236,15.762ZM14.72,22.014H13.405l-.005-4.2-1.86,4.2H10.413L8.55,17.807v4.207H5.939l-.493-1.2H2.776l-.5,1.2H.884l2.3-5.367h1.9l2.183,5.082V16.647H9.362l1.679,3.641,1.541-3.641H14.72S14.72,22.014,14.72,22.014Zm5.24-4.249h-3v.967h2.931v1.1H16.958V20.9h3v1.11H15.676V16.647H19.96ZM25.1,19.524a1.5,1.5,0,0,1,.635.452,1.536,1.536,0,0,1,.213.984v1.053H24.651l-.006-.677a1.614,1.614,0,0,0-.2-1.045,1.257,1.257,0,0,0-.935-.229H22.133v1.952H20.848V16.648H23.8a3.015,3.015,0,0,1,1.553.257A1.252,1.252,0,0,1,26,18.094,1.511,1.511,0,0,1,25.1,19.524Zm2.959,2.49h-1.31V16.647h1.31Zm15.18,0H41.419l-2.433-4.028v4.028h-2.61l-.5-1.2H33.21l-.482,1.2h-1.5a2.688,2.688,0,0,1-1.856-.593,2.691,2.691,0,0,1-.688-2.049,2.88,2.88,0,0,1,.687-2.1,2.6,2.6,0,0,1,1.948-.625h1.239V17.8H31.341a1.231,1.231,0,0,0-.986.318,1.771,1.771,0,0,0-.368,1.216,1.851,1.851,0,0,0,.354,1.259,1.241,1.241,0,0,0,.894.277h.575l1.812-4.22h1.922l2.17,5.076V16.647h1.955l2.254,3.738V16.647h1.313Zm-11.448-3.33-.557,1.3a1.029,1.029,0,0,1-.252-.026,1.363,1.363,0,0,1-.1-.625,1.3,1.3,0,0,1,.1-.582c.037-.036.068-.067.369-.067Z" fill="#747f92"/>
      </g>
    </g>
    <g id="Group_384" data-name="Group 384">
      <g id="Group_383" data-name="Group 383">
        <path id="Path_284" data-name="Path 284" d="M18.651,28.578l1.97,2.188v-4.3Z" fill="#747f92"/>
      </g>
    </g>
    <g id="Group_386" data-name="Group 386">
      <g id="Group_385" data-name="Group 385">
        <path id="Path_285" data-name="Path 285" d="M15.6,27H12.383v.975H15.2v1.1H12.383v1.068h3.152L17,28.558Z" fill="#747f92"/>
      </g>
    </g>
  </g>
</svg>
