<svg xmlns="http://www.w3.org/2000/svg" width="47.834" height="14.725" viewBox="0 0 47.834 14.725">
  <g id="_003-visa-pay-logo" data-name="003-visa-pay-logo" transform="translate(0 -16.554)">
    <g id="Group_338" data-name="Group 338">
      <g id="Group_337" data-name="Group 337">
        <path id="Path_262" data-name="Path 262" d="M19.153,16.8,16.722,31.065H20.61L23.043,16.8Z" fill="#d3d5d8"/>
      </g>
    </g>
    <g id="Group_340" data-name="Group 340">
      <g id="Group_339" data-name="Group 339">
        <path id="Path_263" data-name="Path 263" d="M13.462,16.815,9.654,26.544l-.406-1.469a15.264,15.264,0,0,0-5.386-5.914l3.482,11.9,4.114-.007,6.123-14.239Z" fill="#d3d5d8"/>
      </g>
    </g>
    <g id="Group_342" data-name="Group 342">
      <g id="Group_341" data-name="Group 341">
        <path id="Path_264" data-name="Path 264" d="M7.772,17.836a1.564,1.564,0,0,0-1.694-1.159H.05L0,16.961c4.691,1.138,7.8,3.88,9.083,7.177Z" fill="#d3d5d8"/>
      </g>
    </g>
    <g id="Group_344" data-name="Group 344">
      <g id="Group_343" data-name="Group 343">
        <path id="Path_265" data-name="Path 265" d="M30.923,19.534a7.178,7.178,0,0,1,2.91.546l.351.165.526-3.092a10.036,10.036,0,0,0-3.483-.6c-3.842,0-6.55,1.935-6.571,4.708-.025,2.049,1.929,3.193,3.405,3.876,1.515.7,2.023,1.145,2.016,1.77-.012.955-1.208,1.393-2.325,1.393a8.161,8.161,0,0,1-3.661-.747l-.5-.228-.547,3.193a12.314,12.314,0,0,0,4.332.76c4.087,0,6.743-1.912,6.771-4.875.017-1.621-1.02-2.858-3.267-3.873-1.36-.662-2.192-1.1-2.184-1.77C28.695,20.168,29.4,19.534,30.923,19.534Z" fill="#d3d5d8"/>
      </g>
    </g>
    <g id="Group_346" data-name="Group 346">
      <g id="Group_345" data-name="Group 345">
        <path id="Path_266" data-name="Path 266" d="M44.688,16.815h-3A1.934,1.934,0,0,0,39.647,18L33.874,31.073h4.083s.666-1.758.817-2.143l4.979.006c.116.5.474,2.137.474,2.137h3.607ZM39.893,26.01c.32-.819,1.549-3.987,1.549-3.987-.021.039.317-.825.518-1.362l.262,1.23.9,4.119Z" fill="#d3d5d8"/>
      </g>
    </g>
  </g>
</svg>
