<svg xmlns="http://www.w3.org/2000/svg" width="47.949" height="22.334" viewBox="0 0 47.949 22.334">
  <g id="_004-discover-logo-of-pay-system" data-name="004-discover-logo-of-pay-system" transform="translate(0 -12.807)">
    <g id="Group_348" data-name="Group 348">
      <g id="Group_347" data-name="Group 347">
        <path id="Path_267" data-name="Path 267" d="M35.712,14.123V13H32.038v6.645h3.674V18.516H33.333V16.722h2.293V15.6H33.333V14.123Z" fill="#747f92"/>
      </g>
    </g>
    <g id="Group_350" data-name="Group 350">
      <g id="Group_349" data-name="Group 349">
        <path id="Path_268" data-name="Path 268" d="M39.334,16.844a1.768,1.768,0,0,0,1.514-1.884C40.848,13.716,39.99,13,38.5,13H36.574v6.645h1.295v-2.67h.168l1.793,2.67h1.6Zm-1.088-.788h-.377V14.045h.4c.808,0,1.246.338,1.246.984C39.514,15.7,39.074,16.056,38.246,16.056Z" fill="#747f92"/>
      </g>
    </g>
    <g id="Group_352" data-name="Group 352">
      <g id="Group_351" data-name="Group 351">
        <path id="Path_269" data-name="Path 269" d="M41.424,12.865a.509.509,0,1,0,.5.509A.507.507,0,0,0,41.424,12.865Zm-.005.927a.418.418,0,1,1,.4-.417A.412.412,0,0,1,41.419,13.792Z" fill="#747f92"/>
      </g>
    </g>
    <g id="Group_354" data-name="Group 354">
      <g id="Group_353" data-name="Group 353">
        <path id="Path_270" data-name="Path 270" d="M41.489,13.427a.16.16,0,0,0,.127-.163c0-.118-.08-.181-.222-.181h-.188v.584h.139V13.44l.164.227h.17Zm-.121-.085h-.022V13.19h.024c.069,0,.1.025.1.075S41.437,13.342,41.368,13.342Z" fill="#747f92"/>
      </g>
    </g>
    <g id="Group_356" data-name="Group 356">
      <g id="Group_355" data-name="Group 355">
        <rect id="Rectangle_319" data-name="Rectangle 319" width="1.295" height="6.645" transform="translate(6.07 12.996)" fill="#747f92"/>
      </g>
    </g>
    <g id="Group_358" data-name="Group 358">
      <g id="Group_357" data-name="Group 357">
        <path id="Path_271" data-name="Path 271" d="M10.53,15.545c-.779-.287-1.008-.478-1.008-.836,0-.419.408-.737.967-.737a1.342,1.342,0,0,1,1.045.539l.678-.889a2.914,2.914,0,0,0-1.953-.736,1.949,1.949,0,0,0-2.07,1.9c0,.915.416,1.384,1.633,1.822a5.167,5.167,0,0,1,.9.378.794.794,0,0,1,.389.688.948.948,0,0,1-1.006.938,1.533,1.533,0,0,1-1.414-.887l-.838.807a2.582,2.582,0,0,0,2.3,1.266,2.143,2.143,0,0,0,2.293-2.182C12.44,16.563,12,16.084,10.53,15.545Z" fill="#747f92"/>
      </g>
    </g>
    <g id="Group_360" data-name="Group 360">
      <g id="Group_359" data-name="Group 359">
        <path id="Path_272" data-name="Path 272" d="M12.68,35.141H47.949V22.417S35.494,31.206,12.68,35.141Z" fill="#747f92"/>
      </g>
    </g>
    <g id="Group_362" data-name="Group 362">
      <g id="Group_361" data-name="Group 361">
        <path id="Path_273" data-name="Path 273" d="M1.9,13H0v6.645H1.893a3.464,3.464,0,0,0,2.369-.769,3.327,3.327,0,0,0,1.2-2.549A3.3,3.3,0,0,0,1.9,13Zm1.514,4.99a2.453,2.453,0,0,1-1.771.528H1.295V14.122h.348a2.4,2.4,0,0,1,1.771.537,2.234,2.234,0,0,1,.719,1.654A2.272,2.272,0,0,1,3.414,17.988Z" fill="#747f92"/>
      </g>
    </g>
    <g id="Group_364" data-name="Group 364">
      <g id="Group_363" data-name="Group 363">
        <path id="Path_274" data-name="Path 274" d="M30.049,13l-1.8,4.463L26.482,13H25.066l2.82,6.813h.695L31.452,13Z" fill="#747f92"/>
      </g>
    </g>
    <g id="Group_366" data-name="Group 366">
      <g id="Group_365" data-name="Group 365">
        <path id="Path_275" data-name="Path 275" d="M21.936,12.807a3.534,3.534,0,1,0,3.375,4.585c.021-.061.033-.123.051-.184s.027-.1.037-.154a3.425,3.425,0,0,0,.072-.714A3.534,3.534,0,0,0,21.936,12.807Z" fill="#747f92"/>
      </g>
    </g>
    <g id="Group_368" data-name="Group 368">
      <g id="Group_367" data-name="Group 367">
        <path id="Path_276" data-name="Path 276" d="M16.355,14.031a2.168,2.168,0,0,1,1.625.748V13.255a3.3,3.3,0,0,0-1.594-.408,3.494,3.494,0,0,0-3.537,3.477,3.437,3.437,0,0,0,3.505,3.465,3.558,3.558,0,0,0,1.625-.387V17.876a2.072,2.072,0,0,1-1.564.729,2.171,2.171,0,0,1-2.23-2.292A2.209,2.209,0,0,1,16.355,14.031Z" fill="#747f92"/>
      </g>
    </g>
  </g>
</svg>
