<svg xmlns="http://www.w3.org/2000/svg" width="50.409" height="13.646" viewBox="0 0 50.409 13.646">
  <g id="_001-paypal-logo" data-name="001-paypal-logo" transform="translate(0 -18.381)">
    <g id="Group_304" data-name="Group 304">
      <g id="Group_303" data-name="Group 303">
        <path id="Path_245" data-name="Path 245" d="M9.035,20.6a2.043,2.043,0,0,0-.75-.809,3.513,3.513,0,0,0-1.193-.438,9.75,9.75,0,0,0-1.621-.128l-2.867,0a.718.718,0,0,0-.66.524l-1.929,8.4a.406.406,0,0,0,.415.522H1.8a.7.7,0,0,0,.659-.522l.471-2.04a.7.7,0,0,1,.658-.521h.393A6.5,6.5,0,0,0,7.9,24.564a3.214,3.214,0,0,0,1.4-2.723A2.554,2.554,0,0,0,9.035,20.6ZM6.074,23.349a2.887,2.887,0,0,1-1.736.456H4a.409.409,0,0,1-.417-.524L4,21.5a.7.7,0,0,1,.654-.521l.45,0A2.2,2.2,0,0,1,6.3,21.24a.908.908,0,0,1,.4.818A1.486,1.486,0,0,1,6.074,23.349Z" fill="#d3d5d8"/>
      </g>
    </g>
    <g id="Group_306" data-name="Group 306">
      <g id="Group_305" data-name="Group 305">
        <path id="Path_246" data-name="Path 246" d="M48.175,19.887l-.086.026-.115.016-.141-.022-.072-.07-.033-.11,0-.165v-.611h.459v-.189h-.459v-.381H47.5v.381h-.154v.189H47.5v.711l.106.352.312.112.131-.011.139-.027v-.2Z" fill="#d3d5d8"/>
      </g>
    </g>
    <g id="Group_308" data-name="Group 308">
      <g id="Group_307" data-name="Group 307">
        <path id="Path_247" data-name="Path 247" d="M50.3,18.859l-.328-.135-.242.049-.246.166-.143-.159-.232-.055-.223.049-.211.136v-.148h-.223V20.1h.222v-1l.187-.116.186-.046.152.027.075.077.033.128.011.165V20.1h.223v-.854l0-.071,0-.065.19-.121.188-.047.147.027.08.077.028.129.015.163V20.1h.224v-.867Z" fill="#d3d5d8"/>
      </g>
    </g>
    <g id="Group_310" data-name="Group 310">
      <g id="Group_309" data-name="Group 309">
        <path id="Path_248" data-name="Path 248" d="M15.656,21.805a5.211,5.211,0,0,0-2.454-.438,10.845,10.845,0,0,0-1.661.129c-.411.063-.451.075-.7.13a.805.805,0,0,0-.6.635l-.168.691c-.1.441.159.424.265.387a7.135,7.135,0,0,1,.821-.242,5.886,5.886,0,0,1,1.286-.172,3.39,3.39,0,0,1,1.249.176.631.631,0,0,1,.414.624l-.024.194-.2.122c-.779.049-1.342.121-2.025.22a6.281,6.281,0,0,0-1.741.479,2.706,2.706,0,0,0-1.182.932,2.54,2.54,0,0,0-.393,1.436,1.7,1.7,0,0,0,.559,1.3,2.1,2.1,0,0,0,1.447.494,3.947,3.947,0,0,0,.862-.08l.665-.229.563-.312.518-.342.007.01-.052.22,0,.009v0a.408.408,0,0,0,.367.514l.005.006H14.75l.018-.008a.71.71,0,0,0,.591-.514l1-4.333.052-.353.024-.331A1.449,1.449,0,0,0,15.656,21.805Zm-2.214,4.872-.214.282-.54.279a1.923,1.923,0,0,1-.718.155,1.648,1.648,0,0,1-.782-.149l-.265-.515a1.029,1.029,0,0,1,.2-.67l.582-.4a5.034,5.034,0,0,1,.9-.2c.314-.039.934-.11,1.015-.112l.1.167C13.7,25.609,13.526,26.345,13.442,26.677Z" fill="#d3d5d8"/>
      </g>
    </g>
    <g id="Group_312" data-name="Group 312">
      <g id="Group_311" data-name="Group 311">
        <path id="Path_249" data-name="Path 249" d="M40.594,21.811a5.221,5.221,0,0,0-2.453-.439,10.454,10.454,0,0,0-1.66.132c-.412.06-.453.073-.707.127a.8.8,0,0,0-.6.636l-.168.69c-.094.441.154.421.27.387a8.134,8.134,0,0,1,.814-.243,6.141,6.141,0,0,1,1.289-.172,3.372,3.372,0,0,1,1.246.177.629.629,0,0,1,.414.623l-.021.193-.2.125c-.787.047-1.351.119-2.027.218a6.283,6.283,0,0,0-1.742.479,2.7,2.7,0,0,0-1.182.934,2.508,2.508,0,0,0-.394,1.43,1.678,1.678,0,0,0,.562,1.306,2.1,2.1,0,0,0,1.444.5,3.825,3.825,0,0,0,.861-.081l.663-.226.568-.312.514-.346.009.011-.047.222-.005,0,0,0a.4.4,0,0,0,.365.514l0,0h1.274l.021-.007a.7.7,0,0,0,.584-.518l1-4.327.053-.355.029-.332A1.446,1.446,0,0,0,40.594,21.811Zm-2.209,4.872-.223.285-.535.277a1.945,1.945,0,0,1-.715.155,1.6,1.6,0,0,1-.781-.15l-.268-.513a1.073,1.073,0,0,1,.2-.672,1.407,1.407,0,0,1,.588-.4,5.1,5.1,0,0,1,.9-.2c.312-.039.93-.112,1.01-.113l.1.167C38.644,25.616,38.467,26.349,38.385,26.683Z" fill="#d3d5d8"/>
      </g>
    </g>
    <g id="Group_314" data-name="Group 314">
      <g id="Group_313" data-name="Group 313">
        <path id="Path_250" data-name="Path 250" d="M33.969,20.635a2.124,2.124,0,0,0-.756-.812,3.37,3.37,0,0,0-1.193-.438,9.439,9.439,0,0,0-1.615-.126l-2.871,0a.713.713,0,0,0-.655.522l-1.931,8.406a.407.407,0,0,0,.414.521l1.375,0a.712.712,0,0,0,.66-.52l.465-2.041a.712.712,0,0,1,.66-.521h.393a6.536,6.536,0,0,0,3.922-1.031,3.25,3.25,0,0,0,1.4-2.727A2.679,2.679,0,0,0,33.969,20.635Zm-2.961,2.749a2.923,2.923,0,0,1-1.732.45h-.342a.411.411,0,0,1-.42-.523l.416-1.781a.7.7,0,0,1,.656-.521l.445,0a2.223,2.223,0,0,1,1.194.266.915.915,0,0,1,.4.818A1.507,1.507,0,0,1,31.008,23.384Z" fill="#d3d5d8"/>
      </g>
    </g>
    <g id="Group_316" data-name="Group 316">
      <g id="Group_315" data-name="Group 315">
        <path id="Path_251" data-name="Path 251" d="M45.742,19.85a.4.4,0,0,0-.412-.516H44.1a.7.7,0,0,0-.59.417l-.068.106-.062.272-1.719,7.814-.056.24,0,.006a.389.389,0,0,0,.345.488l.021.029H43.25a.7.7,0,0,0,.592-.424l.066-.1,1.838-8.331Z" fill="#d3d5d8"/>
      </g>
    </g>
    <g id="Group_318" data-name="Group 318">
      <g id="Group_317" data-name="Group 317">
        <path id="Path_252" data-name="Path 252" d="M24.986,21.472c-.325,0-1.646,0-1.646,0a1.19,1.19,0,0,0-.864.524s-1.966,3.374-2.157,3.713l-.228,0-.612-3.687a.756.756,0,0,0-.748-.538l-1.23,0a.406.406,0,0,0-.411.524s.934,5.315,1.121,6.566c.087.69-.011.813-.011.813L16.984,31.5c-.18.288-.083.523.212.523l1.422,0a1.149,1.149,0,0,0,.861-.522l5.47-9.252S25.475,21.461,24.986,21.472Z" fill="#d3d5d8"/>
      </g>
    </g>
  </g>
</svg>
